HIERARCHY
ROOT Hips
{
	OFFSET 0.00000 0.00000 0.00000
	CHANNELS 6 Xposition Yposition Zposition Zrotation Yrotation Xrotation 
	JOINT LHipJoint
	{
		OFFSET 0 0 0
		CHANNELS 3 Zrotation Yrotation Xrotation
		JOINT LeftUpLeg
		{
			OFFSET 1.38691 -1.89057 0.78360
			CHANNELS 3 Zrotation Yrotation Xrotation
			JOINT LeftLeg
			{
				OFFSET 2.59731 -7.13606 0.00000
				CHANNELS 3 Zrotation Yrotation Xrotation
				JOINT LeftFoot
				{
					OFFSET 2.70078 -7.42033 0.00000
					CHANNELS 3 Zrotation Yrotation Xrotation
					JOINT LeftToeBase
					{
						OFFSET 0.16751 -0.46024 2.68862
						CHANNELS 3 Zrotation Yrotation Xrotation
						End Site
						{
							OFFSET 0.00000 -0.00000 1.37057
						}
					}
				}
			}
		}
	}
	JOINT RHipJoint
	{
		OFFSET 0 0 0
		CHANNELS 3 Zrotation Yrotation Xrotation
		JOINT RightUpLeg
		{
			OFFSET -1.38190 -1.89056 0.78359
			CHANNELS 3 Zrotation Yrotation Xrotation
			JOINT RightLeg
			{
				OFFSET -2.57785 -7.08258 0.00000
				CHANNELS 3 Zrotation Yrotation Xrotation
				JOINT RightFoot
				{
					OFFSET -2.77908 -7.63547 0.00000
					CHANNELS 3 Zrotation Yrotation Xrotation
					JOINT RightToeBase
					{
						OFFSET -0.17921 -0.49237 2.62360
						CHANNELS 3 Zrotation Yrotation Xrotation
						End Site
						{
							OFFSET -0.00000 -0.00000 1.34085
						}
					}
				}
			}
		}
	}
	JOINT LowerBack
	{
		OFFSET 0 0 0
		CHANNELS 3 Zrotation Yrotation Xrotation
		JOINT Spine
		{
			OFFSET -0.10749 2.04110 -0.22549
			CHANNELS 3 Zrotation Yrotation Xrotation
			JOINT Spine1
			{
				OFFSET 0.01213 2.05840 0.00691
				CHANNELS 3 Zrotation Yrotation Xrotation
				JOINT Neck
				{
					OFFSET 0 0 0
					CHANNELS 3 Zrotation Yrotation Xrotation
					JOINT Neck1
					{
						OFFSET 0.06585 1.81215 0.35449
						CHANNELS 3 Zrotation Yrotation Xrotation
						JOINT Head
						{
							OFFSET -0.04315 1.87555 -0.27307
							CHANNELS 3 Zrotation Yrotation Xrotation
							End Site
							{
								OFFSET -0.01775 1.89740 -0.13294
							}
						}
					}
				}
				JOINT LeftShoulder
				{
					OFFSET 0 0 0
					CHANNELS 3 Zrotation Yrotation Xrotation
					JOINT LeftArm
					{
						OFFSET 2.98012 1.63606 0.28888
						CHANNELS 3 Zrotation Yrotation Xrotation
						JOINT LeftForeArm
						{
							OFFSET 5.59864 -0.00000 -0.00000
							CHANNELS 3 Zrotation Yrotation Xrotation
							JOINT LeftHand
							{
								OFFSET 3.59542 -0.00000 -0.00000
								CHANNELS 3 Zrotation Yrotation Xrotation
								JOINT LeftFingerBase
								{
									OFFSET 0 0 0
									CHANNELS 3 Zrotation Yrotation Xrotation
									JOINT LeftHandIndex1
									{
										OFFSET 0.57201 -0.00000 -0.00000
										CHANNELS 3 Zrotation Yrotation Xrotation
										End Site
										{
											OFFSET 0.46117 -0.00000 -0.00000
										}
									}
								}
								JOINT LThumb
								{
									OFFSET 0 0 0
									CHANNELS 3 Zrotation Yrotation Xrotation
									End Site
									{
										OFFSET 0.46821 -0.00000 0.46821
									}
								}
							}
						}
					}
				}
				JOINT RightShoulder
				{
					OFFSET 0 0 0
					CHANNELS 3 Zrotation Yrotation Xrotation
					JOINT RightArm
					{
						OFFSET -3.08694 1.53706 0.36335
						CHANNELS 3 Zrotation Yrotation Xrotation
						JOINT RightForeArm
						{
							OFFSET -5.80940 -0.00000 -0.00000
							CHANNELS 3 Zrotation Yrotation Xrotation
							JOINT RightHand
							{
								OFFSET -3.66953 -0.00000 -0.00000
								CHANNELS 3 Zrotation Yrotation Xrotation
								JOINT RightFingerBase
								{
									OFFSET 0 0 0
									CHANNELS 3 Zrotation Yrotation Xrotation
									JOINT RightHandIndex1
									{
										OFFSET -0.57843 -0.00000 -0.00000
										CHANNELS 3 Zrotation Yrotation Xrotation
										End Site
										{
											OFFSET -0.46635 -0.00000 -0.00000
										}
									}
								}
								JOINT RThumb
								{
									OFFSET 0 0 0
									CHANNELS 3 Zrotation Yrotation Xrotation
									End Site
									{
										OFFSET -0.47347 -0.00000 0.47347
									}
								}
							}
						}
					}
				}
			}
		}
	}
}
MOTION
Frames: 15
Frame Time: .0083333
5.4482 19.8761 0.3403 0.9139 80.1557 7.7719 0.0000 0.0000 0.0000 -8.8701 -16.0264 -13.2409 4.2205 12.4481 37.3363 3.2051 -8.3467 -32.4388 1.0902 -6.6356 -18.6402 0.0000 0.0000 0.0000 16.6310 14.0506 -18.6360 -5.0698 -13.4619 41.1232 -2.5151 17.1985 -29.2703 -0.0192 0.8951 -2.4602 -5.0939 -5.3310 12.8669 0.0428 -7.8070 0.0079 4.2648 -3.6400 -6.4862 -4.3835 -10.4817 -15.5415 6.0504 -16.0060 36.0197 0.4171 -6.2027 16.4567 0.0000 -0.0000 0.0000 -78.0583 -3.9946 52.7815 59.7246 -56.2361 -34.1121 -0.0000 0.0000 -35.7776 28.7765 22.8276 12.0284 -7.1250 0.0000 -0.0000 -0.2729 55.6315 -0.0712 0.0000 -0.0000 0.0000 76.9301 -19.4185 47.1760 -35.9473 45.4768 -15.4849 0.0000 -0.0000 -6.2946 -36.0407 13.5328 -9.6629 7.1250 -0.0000 -0.0000 -5.8368 -13.4665 -4.3401
5.4136 19.8709 0.6184 2.6022 80.2796 9.4543 0.0000 0.0000 0.0000 -8.7727 -15.8843 -13.5695 4.2534 12.4902 37.4889 2.9565 -9.2991 -31.0468 1.0355 -6.4722 -18.1610 0.0000 0.0000 0.0000 16.4189 13.8817 -19.0294 -5.1661 -13.5684 41.5354 -2.5316 17.0924 -29.3386 -0.0231 0.9815 -2.6978 -5.3681 -5.2296 13.1133 -0.0128 -7.7209 0.1365 4.3613 -3.5902 -6.4669 -4.5097 -10.5514 -15.6124 6.2033 -16.1129 35.8673 0.4751 -6.2471 16.4389 0.0000 -0.0000 0.0000 -77.8903 -3.8227 52.4177 60.2597 -56.3787 -34.5572 -0.0000 0.0000 -36.0630 28.7743 22.8806 12.0530 -7.1250 0.0000 -0.0000 -0.2890 55.6889 -0.0758 0.0000 -0.0000 0.0000 77.2327 -19.3679 47.4355 -35.2987 45.0242 -15.0243 0.0000 -0.0000 -6.1482 -35.8961 13.5642 -9.6341 7.1250 -0.0000 -0.0000 -5.7361 -13.4555 -4.2658
5.3798 19.8741 0.8970 4.0849 80.3796 10.9649 0.0000 0.0000 0.0000 -8.5918 -15.8155 -14.0019 4.3079 12.5592 37.7401 2.6342 -9.7316 -29.2309 1.0990 -6.6614 -18.7160 0.0000 0.0000 0.0000 16.2198 13.8894 -19.4154 -5.2738 -13.6856 41.9924 -2.5713 16.9960 -29.5320 -0.0241 1.0022 -2.7550 -5.5941 -5.0885 13.3410 -0.0600 -7.5742 0.2649 4.4285 -3.5124 -6.4492 -4.5717 -10.6664 -15.6511 6.3287 -16.2936 35.6842 0.4981 -6.3201 16.3929 -0.0000 -0.0000 0.0000 -77.7108 -3.6753 52.1703 60.7948 -56.5180 -35.0032 -0.0000 0.0000 -36.3211 28.8594 23.0017 12.1530 -7.1250 0.0000 -0.0000 -0.2278 55.8393 -0.0606 -0.0000 -0.0000 0.0000 77.6038 -19.3105 47.4506 -34.6340 44.5490 -14.5560 0.0000 -0.0000 -5.9017 -35.5825 13.7625 -9.6596 7.1250 -0.0000 -0.0000 -5.4988 -13.2760 -4.1085
5.3433 19.8729 1.1741 5.6046 80.3963 12.4816 0.0000 0.0000 0.0000 -8.4395 -15.7133 -14.4284 4.3863 12.6575 38.0994 2.3461 -10.4070 -27.5506 1.1466 -6.7993 -19.1222 0.0000 0.0000 0.0000 16.0237 13.9364 -19.7902 -5.3866 -13.8064 42.4673 -2.6041 16.8462 -29.6797 -0.0295 1.1094 -3.0498 -5.8178 -4.9636 13.6714 -0.1182 -7.4581 0.3684 4.5006 -3.4451 -6.5145 -4.6985 -10.7436 -15.7087 6.4815 -16.4131 35.5561 0.5536 -6.3688 16.3866 -0.0000 0.0000 0.0000 -77.4727 -3.4176 51.8152 61.4466 -56.6832 -35.5473 -0.0000 0.0000 -36.6173 28.7492 23.1400 12.1661 -7.1250 0.0000 -0.0000 -0.3850 55.9661 -0.1036 -0.0000 0.0000 0.0000 77.8871 -19.2425 47.6852 -34.0639 44.1320 -14.1576 0.0000 -0.0000 -5.9234 -35.3149 13.9199 -9.6716 7.1250 -0.0000 -0.0000 -5.2985 -13.1378 -3.9729
5.3066 19.8635 1.4489 7.0636 80.3672 13.9418 0.0000 0.0000 0.0000 -8.2441 -15.8161 -14.7927 4.4771 12.7696 38.5120 2.0195 -11.1700 -25.5859 1.1996 -6.9492 -19.5651 0.0000 0.0000 0.0000 15.8298 14.0260 -20.1749 -5.5000 -13.9257 42.9405 -2.6970 16.4638 -30.1066 -0.0512 1.4600 -4.0155 -6.0172 -4.8060 13.9668 -0.1995 -7.2926 0.5102 4.5197 -3.3576 -6.5312 -4.6400 -10.8079 -15.8174 6.5251 -16.5256 35.3954 0.5333 -6.4062 16.3389 0.0000 -0.0000 0.0000 -77.1628 -3.2178 51.6254 62.0808 -56.8394 -36.0778 -0.0000 0.0000 -36.6903 29.0090 23.2305 12.3374 -7.1250 0.0000 -0.0000 -0.1241 56.1218 -0.0339 0.0000 -0.0000 0.0000 78.2801 -19.1124 47.8011 -33.4265 43.6553 -13.7156 0.0000 -0.0000 -5.4653 -35.4223 13.6119 -9.5025 7.1250 -0.0000 -0.0000 -5.4139 -13.4846 -4.0206
5.2690 19.8531 1.7231 8.4721 80.2825 15.2851 0.0000 0.0000 0.0000 -8.0787 -15.9160 -15.1795 4.5963 12.9143 39.0484 1.7133 -11.7838 -23.6673 1.3517 -7.3601 -20.7866 0.0000 0.0000 0.0000 15.6137 14.1972 -20.4578 -5.6213 -14.0510 43.4423 -2.7364 16.4409 -30.3098 -0.0575 1.5472 -4.2560 -6.2235 -4.6444 14.3808 -0.2790 -7.1325 0.6368 4.5581 -3.2678 -6.6288 -4.6971 -10.8898 -15.8546 6.6551 -16.6613 35.2334 0.5661 -6.4588 16.3013 0.0000 0.0000 0.0000 -76.8674 -2.9636 51.3070 62.7634 -57.0024 -36.6498 -0.0000 0.0000 -36.9489 28.8433 23.3315 12.3046 -7.1250 0.0000 -0.0000 -0.3335 56.1954 -0.0916 0.0000 0.0000 0.0000 78.5672 -18.9888 47.9805 -32.8866 43.2427 -13.3443 0.0000 -0.0000 -5.2187 -35.2414 13.7097 -9.5057 7.1250 -0.0000 -0.0000 -5.2796 -13.4007 -3.9293
5.2314 19.8516 1.9973 9.6743 80.2317 16.4652 0.0000 0.0000 0.0000 -7.8419 -16.2903 -15.5289 4.7354 13.0795 39.6669 1.4125 -12.6355 -21.7457 1.4139 -7.5204 -21.2666 0.0000 0.0000 0.0000 15.4208 14.2326 -20.8359 -5.7504 -14.1821 43.9717 -2.7679 16.4771 -30.4804 -0.0622 1.6090 -4.4263 -6.4435 -4.4864 14.7349 -0.3066 -6.9717 0.7898 4.6490 -3.1808 -6.6564 -4.8070 -10.8861 -15.9410 6.9567 -16.7130 35.0583 0.6933 -6.4566 16.2933 0.0000 -0.0000 0.0000 -76.5873 -2.7630 51.0715 63.4530 -57.1620 -37.2287 -0.0000 0.0000 -37.0600 28.8878 23.4306 12.3745 -7.1250 0.0000 -0.0000 -0.3114 56.3132 -0.0864 0.0000 -0.0000 0.0000 78.7921 -18.7713 48.1455 -32.3995 42.8634 -13.0118 0.0000 -0.0000 -5.0476 -34.9764 13.6880 -9.4000 7.1250 -0.0000 -0.0000 -5.1060 -13.4738 -3.7912
5.1909 19.8277 2.2628 10.7715 80.2527 17.5631 0.0000 0.0000 0.0000 -7.5800 -16.8729 -15.9590 4.9152 13.2876 40.4550 1.1498 -13.5736 -20.0663 1.4171 -7.5285 -21.2909 0.0000 0.0000 0.0000 15.1789 14.2431 -21.3394 -5.9123 -14.3429 44.6289 -2.7652 16.6441 -30.4931 -0.0655 1.6514 -4.5432 -6.4543 -4.4132 15.1744 -0.3486 -6.9020 0.8690 4.6384 -3.1365 -6.8270 -4.7029 -10.8864 -16.0303 6.9296 -16.7154 34.8947 0.6602 -6.4545 16.2154 0.0000 0.0000 0.0000 -76.2895 -2.4009 50.7811 64.2448 -57.3389 -37.8946 -0.0000 0.0000 -37.2171 28.8123 23.4782 12.3601 -7.1250 0.0000 -0.0000 -0.4076 56.3483 -0.1134 0.0000 0.0000 0.0000 79.0053 -18.6335 48.2830 -31.9485 42.5061 -12.7060 0.0000 -0.0000 -4.7780 -34.8434 13.6973 -9.3606 7.1250 -0.0000 -0.0000 -5.0161 -13.4864 -3.7225
5.1484 19.7937 2.5253 11.7274 80.3263 18.5155 0.0000 0.0000 0.0000 -7.2832 -17.5296 -16.4411 5.1282 13.5267 41.3735 0.9042 -14.6426 -18.5388 1.4389 -7.5839 -21.4572 0.0000 0.0000 0.0000 14.9621 14.1733 -21.9400 -6.1073 -14.5315 45.4109 -2.7496 16.8450 -30.4443 -0.0763 1.7820 -4.9036 -6.4601 -4.3854 15.6294 -0.3560 -6.8901 0.9503 4.6729 -3.1202 -6.9927 -4.8988 -10.8942 -15.9390 7.1135 -16.7053 34.6458 0.7740 -6.4682 16.1154 -0.0000 0.0000 0.0000 -76.0393 -2.0489 50.4272 64.9866 -57.4986 -38.5197 -0.0000 0.0000 -37.3755 28.9224 23.6166 12.4815 -7.1250 0.0000 -0.0000 -0.3244 56.5234 -0.0916 -0.0000 0.0000 0.0000 79.1249 -18.4554 48.5218 -31.5628 42.1958 -12.4462 0.0000 -0.0000 -4.5077 -34.6576 13.6351 -9.2564 7.1250 -0.0000 -0.0000 -4.9007 -13.5927 -3.6252
5.1029 19.7536 2.7915 12.4396 80.2498 19.1812 0.0000 0.0000 0.0000 -7.0167 -18.1218 -16.9146 5.3768 13.7960 42.4262 0.7044 -15.5921 -17.3381 1.4534 -7.6202 -21.5662 0.0000 0.0000 0.0000 14.7267 14.2897 -22.5675 -6.3499 -14.7591 46.3704 -2.7269 17.1011 -30.3690 -0.0817 1.8432 -5.0726 -6.5076 -4.2320 16.1391 -0.3900 -6.7236 1.0487 4.6768 -3.0260 -7.1864 -4.9675 -10.9891 -15.8195 7.2165 -16.8343 34.4001 0.8071 -6.5352 15.9976 0.0000 -0.0000 0.0000 -75.6844 -1.7304 50.3033 65.8596 -57.6793 -39.2567 -0.0000 0.0000 -37.6386 28.8886 23.7848 12.5456 -7.1250 0.0000 -0.0000 -0.4088 56.6988 -0.1172 0.0000 -0.0000 0.0000 79.6236 -18.2182 47.9974 -31.0109 41.7443 -12.0771 0.0000 -0.0000 -3.8207 -34.4295 13.8442 -9.3148 7.1250 -0.0000 -0.0000 -4.7198 -13.3860 -3.5111
5.0555 19.7059 3.0461 13.4073 80.4227 20.1323 0.0000 0.0000 0.0000 -6.7440 -19.0263 -17.4815 5.6529 14.0833 43.5721 0.5023 -16.6047 -16.1731 1.3849 -7.4462 -21.0442 0.0000 0.0000 0.0000 14.4347 14.0740 -23.4061 -6.6276 -15.0101 47.4515 -2.6798 17.4369 -30.1835 -0.0865 1.8970 -5.2210 -6.4204 -4.2336 16.6891 -0.3540 -6.7353 1.1398 4.7183 -3.0208 -7.3952 -5.0372 -11.0113 -15.8100 7.2892 -16.8417 34.1274 0.8463 -6.5541 15.8781 0.0000 0.0000 0.0000 -75.4785 -1.4410 50.0471 66.6624 -57.8386 -39.9357 -0.0000 0.0000 -37.8472 28.8617 23.9230 12.5985 -7.1250 0.0000 -0.0000 -0.4779 56.8430 -0.1387 0.0000 0.0000 0.0000 79.6309 -17.9544 48.2029 -30.7171 41.5002 -11.8820 0.0000 -0.0000 -3.6992 -34.4223 13.8458 -9.3133 7.1250 -0.0000 -0.0000 -4.7148 -13.3853 -3.5074
5.0134 19.6546 3.3060 13.0164 80.2865 19.7968 0.0000 0.0000 0.0000 -6.2978 -19.4415 -18.1493 5.9466 14.3764 44.7669 0.3224 -17.6164 -15.2294 1.3566 -7.3727 -20.8245 0.0000 0.0000 0.0000 14.3274 14.1771 -24.2910 -6.9361 -15.2779 48.6323 -2.6383 17.6790 -30.0128 -0.0880 1.9131 -5.2655 -6.2729 -4.1168 17.0246 -0.3267 -6.5616 1.2775 4.6556 -2.9369 -7.4638 -4.8230 -11.0490 -15.9762 7.2065 -16.9114 33.9220 0.7550 -6.5746 15.7852 -0.0000 -0.0000 0.0000 -75.2108 -1.2176 49.8315 67.4892 -57.9959 -40.6362 -0.0000 0.0000 -38.0929 28.8139 24.0754 12.6474 -7.1250 0.0000 -0.0000 -0.5750 56.9978 -0.1691 -0.0000 -0.0000 0.0000 79.7164 -17.6657 48.3736 -30.5266 41.3405 -11.7559 0.0000 -0.0000 -3.6091 -34.4656 13.7666 -9.2768 7.1250 -0.0000 -0.0000 -4.7545 -13.4710 -3.5285
4.9650 19.5977 3.5595 12.9822 80.3580 19.7934 0.0000 0.0000 0.0000 -5.9138 -20.0657 -18.8865 6.2607 14.6763 46.0193 0.1872 -18.4971 -14.6296 1.3591 -7.3794 -20.8442 0.0000 0.0000 0.0000 14.1624 14.1066 -25.2806 -7.2734 -15.5579 49.9011 -2.6260 17.7874 -29.9698 -0.1043 2.0828 -5.7345 -6.0563 -4.0693 17.5126 -0.2868 -6.4748 1.3912 4.6007 -2.8907 -7.6375 -5.0037 -11.1064 -15.9102 7.4791 -17.0062 33.6049 0.8781 -6.6198 15.6814 0.0000 0.0000 0.0000 -74.9460 -0.9583 49.6730 68.4545 -58.1712 -41.4556 -0.0000 0.0000 -38.4105 28.7415 24.2950 12.7154 -7.1250 0.0000 -0.0000 -0.7206 57.2196 -0.2157 0.0000 0.0000 0.0000 79.8548 -17.3661 48.3287 -30.3425 41.1852 -11.6345 0.0000 -0.0000 -3.5070 -34.4423 13.8311 -9.3107 7.1250 -0.0000 -0.0000 -4.7302 -13.3991 -3.5176
4.9163 19.5334 3.8114 12.7396 80.3740 19.5704 0.0000 0.0000 0.0000 -5.5670 -20.5109 -19.6678 6.5916 14.9781 47.3122 0.0938 -19.2615 -14.3466 1.3368 -7.3209 -20.6697 0.0000 0.0000 0.0000 14.0061 14.0131 -26.2951 -7.6273 -15.8381 51.2088 -2.5885 17.9908 -29.8141 -0.1144 2.1804 -6.0046 -5.8481 -4.0236 18.0322 -0.2128 -6.3885 1.5034 4.5887 -2.8433 -7.8239 -5.0549 -11.1543 -15.9526 7.5672 -17.0663 33.3570 0.9063 -6.6526 15.5937 0.0000 0.0000 0.0000 -74.8095 -0.7034 49.4260 69.2962 -58.3167 -42.1713 -0.0000 0.0000 -38.6581 28.7717 24.4348 12.7972 -7.1250 0.0000 -0.0000 -0.7289 57.3779 -0.2210 0.0000 0.0000 0.0000 79.8652 -17.0658 48.4178 -30.2050 41.0685 -11.5441 0.0000 -0.0000 -3.4415 -34.5833 13.7681 -9.3179 7.1250 -0.0000 -0.0000 -4.8328 -13.4486 -3.5894
4.8653 19.4608 4.0613 12.7503 80.3631 19.6128 0.0000 0.0000 0.0000 -5.3108 -20.7726 -20.5527 6.9436 15.2842 48.6608 0.0459 -19.9378 -14.4117 1.3031 -7.2318 -20.4040 0.0000 0.0000 0.0000 13.7589 13.9390 -27.3551 -7.9971 -16.1171 52.5521 -2.5108 18.4319 -29.5003 -0.1132 2.1688 -5.9725 -5.6674 -3.9538 18.5212 -0.1772 -6.2732 1.6304 4.5393 -2.7831 -7.9808 -5.1491 -11.2202 -15.9796 7.7672 -17.1777 33.0827 0.9766 -6.6982 15.5160 -0.0000 0.0000 0.0000 -74.5692 -0.4537 49.3039 70.3220 -58.4851 -43.0450 -0.0000 0.0000 -38.9974 28.7338 24.5508 12.8329 -7.1250 0.0000 -0.0000 -0.8065 57.4950 -0.2468 -0.0000 0.0000 0.0000 79.9915 -16.7350 48.2904 -30.0955 40.9751 -11.4722 0.0000 -0.0000 -3.3497 -34.7421 13.6009 -9.2626 7.1250 -0.0000 -0.0000 -4.9617 -13.6184 -3.6680
